G04 (created by PCBNEW-RS274X (2012-jan-04)-stable) date Fri 13 Apr 2012 11:09:43 PM EDT*
G01*
G70*
G90*
%MOIN*%
G04 Gerber Fmt 3.4, Leading zero omitted, Abs format*
%FSLAX34Y34*%
G04 APERTURE LIST*
%ADD10C,0.006000*%
%ADD11C,0.180000*%
%ADD12R,0.065000X0.045000*%
%ADD13R,0.045000X0.065000*%
%ADD14C,0.098700*%
%ADD15R,0.075000X0.075000*%
%ADD16C,0.075000*%
%ADD17C,0.070000*%
%ADD18C,0.120000*%
%ADD19C,0.148000*%
G04 APERTURE END LIST*
G54D10*
G54D11*
X28000Y-14500D03*
X42250Y-07250D03*
X42250Y-14750D03*
G54D12*
X33365Y-09975D03*
X33365Y-10575D03*
X37985Y-09975D03*
X37985Y-10575D03*
X34855Y-09975D03*
X34855Y-10575D03*
X37245Y-09975D03*
X37245Y-10575D03*
X39695Y-09975D03*
X39695Y-10575D03*
G54D13*
X23910Y-11920D03*
X23310Y-11920D03*
X24890Y-11920D03*
X25490Y-11920D03*
X24100Y-07900D03*
X24700Y-07900D03*
G54D12*
X26140Y-09820D03*
X26140Y-10420D03*
X22570Y-09390D03*
X22570Y-09990D03*
G54D14*
X09110Y-15239D03*
X09110Y-13861D03*
X30459Y-06680D03*
X29081Y-06680D03*
X09110Y-07681D03*
X09110Y-09059D03*
G54D15*
X20290Y-10390D03*
G54D16*
X20290Y-11390D03*
X11705Y-08685D03*
X11705Y-07685D03*
X15285Y-06665D03*
X14285Y-06665D03*
G54D17*
X44505Y-10565D03*
X44505Y-11365D03*
X44505Y-12165D03*
X44505Y-12965D03*
X44505Y-09765D03*
X44505Y-08965D03*
G54D18*
X50155Y-14140D03*
X50155Y-07790D03*
G54D19*
X48905Y-08465D03*
X48905Y-13465D03*
M02*
