M48
INCH,TZ
T1C0.015
T2C0.032
T3C0.035
T4C0.051
T5C0.062
T6C0.120
T7C0.128
%
G90
G05
T1
X1.422Y-1.239
X1.443Y-1.075
X1.527Y-1.513
X1.623Y-1.514
X1.727Y-1.514
X1.824Y-1.511
X2.185Y-0.939
X2.188Y-0.982
X2.275Y-1.346
X2.391Y-1.243
X2.410Y-0.732
X2.450Y-0.731
X2.487Y-1.335
X2.489Y-1.243
X2.519Y-1.336
X2.551Y-1.336
X2.584Y-1.336
X2.670Y-0.982
X2.683Y-1.012
X2.811Y-1.162
X2.918Y-1.162
X2.934Y-0.894
X2.934Y-0.926
X3.099Y-0.894
X3.099Y-0.926
X3.336Y-0.957
X3.385Y-1.187
X3.486Y-0.960
X3.661Y-0.960
X3.763Y-0.956
X3.835Y-0.958
X3.836Y-1.199
X3.986Y-0.955
X4.037Y-0.884
X4.087Y-1.340
X4.285Y-0.849
T2
X1.171Y-0.769
X1.171Y-0.869
X1.429Y-0.666
X1.528Y-0.666
X2.029Y-1.039
X2.029Y-1.139
T3
X4.450Y-0.897
X4.450Y-0.977
X4.450Y-1.056
X4.450Y-1.137
X4.450Y-1.217
X4.450Y-1.296
T4
X0.911Y-0.768
X0.911Y-0.906
X0.911Y-1.386
X0.911Y-1.524
X2.908Y-0.668
X3.046Y-0.668
T5
X5.016Y-0.779
X5.016Y-1.414
T6
X2.800Y-1.450
X4.225Y-0.725
X4.225Y-1.475
T7
X4.891Y-0.847
X4.891Y-1.347
T0
M30
