G04 (created by PCBNEW-RS274X (2012-jan-04)-stable) date Fri 13 Apr 2012 11:09:43 PM EDT*
G01*
G70*
G90*
%MOIN*%
G04 Gerber Fmt 3.4, Leading zero omitted, Abs format*
%FSLAX34Y34*%
G04 APERTURE LIST*
%ADD10C,0.006000*%
%ADD11C,0.180000*%
%ADD12R,0.060000X0.030000*%
%ADD13R,0.030000X0.060000*%
%ADD14R,0.056000X0.056000*%
%ADD15R,0.047600X0.067200*%
%ADD16R,0.065000X0.040000*%
%ADD17R,0.040000X0.070000*%
%ADD18R,0.100000X0.080000*%
%ADD19R,0.055000X0.075000*%
%ADD20R,0.075000X0.055000*%
%ADD21R,0.065000X0.045000*%
%ADD22R,0.045000X0.065000*%
%ADD23R,0.043600X0.035700*%
%ADD24R,0.035700X0.043600*%
%ADD25C,0.098700*%
%ADD26R,0.075000X0.075000*%
%ADD27C,0.075000*%
%ADD28R,0.335000X0.126300*%
%ADD29R,0.051400X0.051400*%
%ADD30R,0.240500X0.102700*%
%ADD31C,0.070000*%
%ADD32C,0.120000*%
%ADD33C,0.148000*%
G04 APERTURE END LIST*
G54D10*
G54D11*
X28000Y-14500D03*
X42250Y-07250D03*
X42250Y-14750D03*
G54D12*
X21250Y-12180D03*
X21250Y-07460D03*
X21250Y-07660D03*
X21250Y-07850D03*
X21250Y-08050D03*
X21250Y-08250D03*
X21250Y-08440D03*
X21250Y-08640D03*
X21250Y-08840D03*
X21250Y-09030D03*
X21250Y-09230D03*
X21250Y-09430D03*
X21250Y-09630D03*
X21250Y-09820D03*
X21250Y-10020D03*
X21250Y-10220D03*
X21250Y-10410D03*
X21250Y-10610D03*
X21250Y-10810D03*
X21250Y-11000D03*
X21250Y-11200D03*
X21250Y-11400D03*
X21250Y-11590D03*
X21250Y-11790D03*
X21250Y-11990D03*
G54D13*
X21940Y-06770D03*
X26660Y-06770D03*
X26460Y-06770D03*
X26270Y-06770D03*
X26070Y-06770D03*
X25870Y-06770D03*
X25680Y-06770D03*
X25480Y-06770D03*
X25280Y-06770D03*
X25090Y-06770D03*
X24890Y-06770D03*
X24690Y-06770D03*
X24490Y-06770D03*
X24300Y-06770D03*
X24100Y-06770D03*
X23900Y-06770D03*
X23710Y-06770D03*
X23510Y-06770D03*
X23310Y-06770D03*
X23120Y-06770D03*
X22920Y-06770D03*
X22720Y-06770D03*
X22530Y-06770D03*
X22330Y-06770D03*
X22130Y-06770D03*
X21940Y-12870D03*
X22140Y-12870D03*
X22330Y-12870D03*
X22530Y-12870D03*
X22730Y-12870D03*
X22920Y-12870D03*
X23120Y-12870D03*
X23320Y-12870D03*
X23510Y-12870D03*
X23710Y-12870D03*
X23910Y-12870D03*
X24110Y-12870D03*
X24300Y-12870D03*
X24500Y-12870D03*
X24700Y-12870D03*
X24890Y-12870D03*
X25090Y-12870D03*
X25290Y-12870D03*
X25480Y-12870D03*
X25680Y-12870D03*
X25880Y-12870D03*
X26070Y-12870D03*
X26270Y-12870D03*
X26470Y-12870D03*
X26660Y-12870D03*
G54D12*
X27350Y-12180D03*
X27350Y-11980D03*
X27350Y-11790D03*
X27350Y-11590D03*
X27350Y-11390D03*
X27350Y-11200D03*
X27350Y-11000D03*
X27350Y-10800D03*
X27350Y-10610D03*
X27350Y-10410D03*
X27350Y-10210D03*
X27350Y-10010D03*
X27350Y-09820D03*
X27350Y-09620D03*
X27350Y-09420D03*
X27350Y-09230D03*
X27350Y-09030D03*
X27350Y-08830D03*
X27350Y-08640D03*
X27350Y-08440D03*
X27350Y-08240D03*
X27350Y-08050D03*
X27350Y-07850D03*
X27350Y-07650D03*
X27350Y-07460D03*
G54D14*
X29340Y-08470D03*
X28640Y-08470D03*
X28990Y-07670D03*
X30990Y-08520D03*
X30290Y-08520D03*
X30640Y-07720D03*
G54D15*
X15285Y-09847D03*
X15285Y-11303D03*
G54D16*
X10835Y-12245D03*
X12935Y-12245D03*
X10835Y-11745D03*
X10835Y-11245D03*
X10835Y-10745D03*
X12935Y-11745D03*
X12935Y-11245D03*
X12935Y-10745D03*
G54D17*
X33355Y-12615D03*
X33855Y-12615D03*
X34355Y-12615D03*
X34855Y-12615D03*
X35355Y-12615D03*
X35855Y-12615D03*
X36355Y-12615D03*
X36855Y-12615D03*
X37355Y-12615D03*
X37855Y-12615D03*
X38355Y-12615D03*
X38855Y-12615D03*
X39355Y-12615D03*
X39855Y-12615D03*
X39855Y-09015D03*
X39355Y-09015D03*
X38855Y-09015D03*
X38355Y-09015D03*
X37855Y-09015D03*
X37355Y-09015D03*
X36855Y-09015D03*
X36355Y-09015D03*
X35855Y-09015D03*
X35355Y-09015D03*
X34855Y-09015D03*
X34355Y-09015D03*
X33855Y-09015D03*
X33355Y-09015D03*
G54D18*
X09720Y-11100D03*
X09720Y-12400D03*
G54D19*
X40640Y-09635D03*
X41390Y-09635D03*
G54D20*
X18635Y-06660D03*
X18635Y-07410D03*
X32545Y-11870D03*
X32545Y-12620D03*
G54D19*
X17620Y-07415D03*
X16870Y-07415D03*
G54D21*
X18240Y-14130D03*
X18240Y-14730D03*
G54D22*
X13825Y-11245D03*
X14425Y-11245D03*
G54D21*
X28060Y-08890D03*
X28060Y-09490D03*
G54D22*
X13825Y-09845D03*
X14425Y-09845D03*
G54D21*
X27970Y-08330D03*
X27970Y-07730D03*
G54D22*
X14425Y-08975D03*
X13825Y-08975D03*
G54D21*
X42165Y-08475D03*
X42165Y-09075D03*
X42165Y-10235D03*
X42165Y-09635D03*
X41395Y-11765D03*
X41395Y-12365D03*
X41395Y-13615D03*
X41395Y-13015D03*
X31775Y-09065D03*
X31775Y-08465D03*
X32475Y-09055D03*
X32475Y-08455D03*
X40595Y-12075D03*
X40595Y-12675D03*
X17240Y-14130D03*
X17240Y-14730D03*
X16240Y-14130D03*
X16240Y-14730D03*
X15240Y-14130D03*
X15240Y-14730D03*
X14240Y-14130D03*
X14240Y-14730D03*
X13240Y-14130D03*
X13240Y-14730D03*
X12240Y-14130D03*
X12240Y-14730D03*
X11240Y-14130D03*
X11240Y-14730D03*
G54D22*
X19980Y-09470D03*
X20580Y-09470D03*
X40455Y-13395D03*
X39855Y-13395D03*
X41395Y-08835D03*
X40795Y-08835D03*
G54D23*
X36860Y-08447D03*
X36860Y-08093D03*
X32580Y-07487D03*
X32580Y-07133D03*
G54D24*
X23527Y-13460D03*
X23173Y-13460D03*
X24203Y-13500D03*
X24557Y-13500D03*
G54D25*
X09110Y-15239D03*
X09110Y-13861D03*
X30459Y-06680D03*
X29081Y-06680D03*
X09110Y-07681D03*
X09110Y-09059D03*
G54D26*
X20290Y-10390D03*
G54D27*
X20290Y-11390D03*
G54D28*
X17585Y-11780D03*
X17585Y-08670D03*
G54D29*
X11220Y-13505D03*
X11220Y-12915D03*
X14220Y-13505D03*
X14220Y-12915D03*
X12220Y-13505D03*
X12220Y-12915D03*
X13220Y-13505D03*
X13220Y-12915D03*
X31775Y-10220D03*
X31775Y-09630D03*
X32475Y-10220D03*
X32475Y-09630D03*
X18220Y-13505D03*
X18220Y-12915D03*
X17220Y-13505D03*
X17220Y-12915D03*
X16220Y-13505D03*
X16220Y-12915D03*
X15220Y-13505D03*
X15220Y-12915D03*
G54D30*
X35210Y-07080D03*
X38950Y-07080D03*
X21270Y-14210D03*
X25010Y-14210D03*
G54D27*
X11705Y-08685D03*
X11705Y-07685D03*
X15285Y-06665D03*
X14285Y-06665D03*
G54D31*
X44505Y-10565D03*
X44505Y-11365D03*
X44505Y-12165D03*
X44505Y-12965D03*
X44505Y-09765D03*
X44505Y-08965D03*
G54D32*
X50155Y-14140D03*
X50155Y-07790D03*
G54D33*
X48905Y-08465D03*
X48905Y-13465D03*
M02*
